<?xml version="1.0"?>
<svg xmlns="http://www.w3.org/2000/svg" height="512px" viewBox="0 0 449.6 449" width="512px"><g><path d="m440 .300781h-152c-4.800781 0-8 3.199219-8 8v73.597657c0 6.402343-2.398438 12.800781-7.199219 16.800781l-13.601562 13.601562h180.800781c4.800781 0 8-3.199219 8-8v-96c0-4.800781-3.199219-8-8-8zm-40 96h-104v-16h104zm32-32h-136v-16h136zm0-32h-136v-16h136zm0 0" data-original="#000000" class="active-path" data-old_color="#000000" fill="#E93035"/><path d="m129.601562 69.898438c9.597657 5.601562 20.796876 6.402343 31.199219 2.402343l28.800781-12c-19.203124-33.601562-62.402343-45.601562-96.800781-26.402343-17.601562 10.402343-30.402343 27.203124-34.402343 47.203124v.796876l20-11.199219c16-10.398438 35.203124-9.597657 51.203124-.800781zm0 0" data-original="#000000" class="active-path" data-old_color="#000000" fill="#E93035"/><path d="m56 272.300781h16v96h48v-128l-24.800781 18.398438-35.199219-35.199219-16.800781 5.601562c-16 5.597657-27.199219 20.796876-27.199219 37.597657v101.601562h40zm0 0" data-original="#000000" class="active-path" data-old_color="#000000" fill="#E93035"/><path d="m71.199219 160.300781h24.800781c0-2.402343-1.601562-4.800781-3.199219-6.402343l-9.601562-6.398438c-6.398438-4.800781-10.398438-12-10.398438-20v-36l-17.601562 10.398438-7.199219 29.601562c-2.398438 12.800781 5.601562 25.601562 18.398438 28.800781zm0 0" data-original="#000000" class="active-path" data-old_color="#000000" fill="#E93035"/><path d="m184 127.5c0 8-4 15.199219-10.398438 20l-9.601562 6.398438c-2.398438 1.601562-4 4-4 6.402343h24.800781c13.597657 0 24-10.402343 24-24 0-1.601562 0-3.199219-.800781-4.800781l-10.398438-51.199219c-.800781-1.601562-.800781-4-1.601562-5.601562l-12 4.800781zm0 0" data-original="#000000" class="active-path" data-old_color="#000000" fill="#E93035"/><path d="m144 161.101562c0-8 4-15.203124 10.398438-20l9.601562-6.402343c2.398438-1.597657 3.199219-4 3.199219-6.398438v-40.800781h-.800781c-15.199219 6.398438-32 5.601562-45.597657-3.199219-10.402343-6.402343-22.402343-6.402343-33.601562-.800781v44.800781c0 2.398438 1.601562 4.800781 3.199219 6.398438l9.601562 6.402343c6.398438 4.796876 10.398438 12 10.398438 20v31.199219h32v-31.199219zm0 0" data-original="#000000" class="active-path" data-old_color="#000000" fill="#E93035"/><path d="m76.800781 217.898438 20 20 23.199219-17.597657v-12h-14.398438zm0 0" data-original="#000000" class="active-path" data-old_color="#000000" fill="#E93035"/><path d="m179.199219 217.898438-28.800781-9.597657h-14.398438v12l23.199219 17.597657zm0 0" data-original="#000000" class="active-path" data-old_color="#000000" fill="#E93035"/><path d="m240 321.101562v-54.402343c0-17.597657-11.199219-32.800781-27.199219-37.597657l-16.800781-5.601562-35.199219 35.199219-24.800781-18.398438v128h48v-64h16v64h16v-.800781c0-18.398438 8.800781-36 24-46.398438zm-40-32.800781h-48v-16h48zm0 0" data-original="#000000" class="active-path" data-old_color="#000000" fill="#E93035"/><path d="m366.398438 287.5c16-9.601562 25.601562-26.398438 25.601562-44.800781v-82.398438h-80c-13.601562 0-24 10.398438-24 24v58.398438c0 28.800781 23.199219 52 52 52 9.601562 0 18.398438-2.398438 26.398438-7.199219zm0 0" data-original="#000000" class="active-path" data-old_color="#000000" fill="#E93035"/><path d="m424.800781 330.699219-56.800781-25.597657c-17.601562 8-37.601562 8-54.398438 0l-56.800781 25.597657c-14.402343 6.402343-23.199219 20.800781-23.199219 36.800781v80.800781h216v-80.800781c-1.601562-16-10.402343-30.398438-24.800781-36.800781zm0 0" data-original="#000000" class="active-path" data-old_color="#000000" fill="#E93035"/><path d="m0 448.300781h216v-64h-216zm88-40h80v16h-80zm0 0" data-original="#000000" class="active-path" data-old_color="#000000" fill="#E93035"/></g> </svg>
